<svg width="100" height="100" viewBox="0 0 100 100" fill="currentColor" xmlns="http://www.w3.org/2000/svg">
<path d="M49.8632 0C52.7767 0 55.4955 1.15205 57.8888 3.05398C58.9089 2.57477 60.0329 2.27273 61.2268 2.27273C65.5931 2.27273 69.1814 5.86102 69.1814 10.2273C69.1814 12.5009 68.2093 14.5962 66.6601 16.0511C67.0445 16.9808 67.4449 17.936 67.7964 18.9275C70.9937 18.3389 74.0432 18.0133 76.8518 18.0043C84.1401 17.9805 90.2726 20.0135 93.1516 25C94.922 28.0665 95.1186 31.748 94.1459 35.4759C93.1732 39.2037 91.0846 43.0867 88.1444 47.017C87.4094 47.9997 86.6076 49.0137 85.7652 50C86.6141 50.994 87.4044 51.9936 88.1444 52.983C91.0846 56.9133 93.1732 60.7607 94.1459 64.4886C95.1186 68.2166 94.922 71.9335 93.1516 75C91.6394 77.6192 89.1426 79.4019 86.1558 80.5044C85.6783 84.4267 82.3154 87.5 78.2723 87.5C74.5751 87.5 71.4417 84.938 70.5663 81.4987C69.6702 81.3755 68.7574 81.2076 67.8319 81.0369C67.391 82.2857 66.9046 83.4732 66.4115 84.6237C64.4783 89.1345 62.1575 92.8907 59.4158 95.5966C56.674 98.3025 53.4039 100 49.8632 100C46.3225 100 43.0524 98.3025 40.3106 95.5966C37.5689 92.8907 35.2481 89.1345 33.3149 84.6237C32.8274 83.4861 32.3665 82.3061 31.93 81.0726C30.5895 81.3205 29.2656 81.4927 27.9882 81.6408C27.0647 85.0103 23.965 87.5 20.3177 87.5C16.1178 87.5 12.6577 84.1816 12.3987 80.0426C9.93514 78.9198 7.88555 77.2702 6.57484 75C4.80442 71.9335 4.60783 68.2166 5.58053 64.4886C6.55322 60.7607 8.64181 56.9133 11.5819 52.983C12.322 51.9936 13.1123 50.994 13.9612 50C13.1188 49.0137 12.317 47.9997 11.5819 47.017C8.64181 43.0867 6.55322 39.2037 5.58053 35.4759C4.60783 31.748 4.80442 28.0665 6.57484 25C9.45381 20.0135 15.5863 17.9808 22.8746 18.0043C25.6832 18.0157 28.7327 18.3389 31.93 18.9275C32.3665 17.6931 32.8274 16.4784 33.3149 15.3409C35.2481 10.8301 37.5689 7.10932 40.3106 4.40341C43.0524 1.6975 46.3225 0 49.8632 0ZM49.8632 4.54545C47.7555 4.54545 45.6592 5.51058 43.5067 7.63501C41.3541 9.75933 39.2736 12.9903 37.5052 17.1165C37.1243 18.0052 36.755 18.9556 36.4044 19.9218C40.7116 21.0165 45.2295 22.5996 49.8632 24.6093C54.4969 22.5996 59.0148 21.0165 63.322 19.9218C63.094 19.2942 62.8528 18.6708 62.6118 18.0752C62.1624 18.1559 61.6979 18.182 61.2268 18.182C56.8606 18.182 53.2723 14.5937 53.2723 10.2275C53.2723 8.72316 53.7073 7.34845 54.4442 6.14367C52.9029 5.06299 51.3766 4.54566 49.8632 4.54566V4.54545ZM61.2268 6.81818C59.3171 6.81818 57.8177 8.31761 57.8177 10.2273C57.8177 12.1369 59.3171 13.6364 61.2268 13.6364C63.1365 13.6364 64.6359 12.1369 64.6359 10.2273C64.6359 8.31761 63.1365 6.81818 61.2268 6.81818ZM76.8518 22.5498C74.5087 22.5611 71.9185 22.8375 69.1459 23.3309C70.3508 27.61 71.3003 32.3035 71.8802 37.3225C75.914 40.3214 79.5504 43.4589 82.6402 46.6264C83.2955 45.8462 83.9118 45.0513 84.4868 44.2827C87.1762 40.6874 88.9788 37.2309 89.7425 34.304C90.5062 31.377 90.2991 29.098 89.2453 27.2727C87.535 24.3103 83.2908 22.5291 76.8518 22.5498ZM22.8746 22.5498C16.4356 22.5293 12.1914 24.3103 10.4811 27.2727C9.42733 29.098 9.22023 31.377 9.98393 34.304C10.7476 37.2309 12.5502 40.6874 15.2396 44.2827C15.8145 45.0513 16.4309 45.8462 17.0862 46.6264C20.1861 43.4484 23.8318 40.2948 27.8817 37.2869C28.4589 32.2885 29.3485 27.5951 30.545 23.3309C27.7857 22.8416 25.2078 22.5573 22.8746 22.5498ZM64.6714 24.2898C61.7588 25.025 58.6911 26.0041 55.545 27.2017C57.4375 28.1567 59.3278 29.1948 61.2268 30.2911C63.1444 31.3983 64.9766 32.5607 66.7666 33.7358C66.2271 30.3697 65.5031 27.2131 64.6714 24.2898ZM34.9839 24.2898C34.1573 27.2034 33.5326 30.3833 32.9953 33.7358C34.7777 32.5664 36.5908 31.3932 38.4996 30.2911C40.3986 29.1948 42.2888 28.1567 44.1814 27.2017C41.0117 25.9951 37.9163 25.027 34.9839 24.2898ZM49.8632 29.5809C46.859 30.9477 43.8149 32.4764 40.7723 34.233C37.7395 35.9839 34.8934 37.8633 32.214 39.7727C31.8945 43.0723 31.6814 46.4755 31.6814 50C31.6814 53.5103 31.8615 56.9436 32.1785 60.2273C34.8646 62.1426 37.7306 63.9755 40.7723 65.7316C43.8118 67.4864 46.8616 69.0509 49.8632 70.4191C52.8699 69.0486 55.9093 67.4894 58.9541 65.7316C61.9958 63.9755 64.8618 62.1426 67.5479 60.2273C67.8649 56.9436 68.045 53.5103 68.045 50C68.045 46.4737 67.8316 43.0716 67.5123 39.7727C64.833 37.8633 61.9869 35.9839 58.9541 34.233C55.9115 32.4764 52.8674 30.9477 49.8632 29.5809ZM49.8632 42.0455C54.2295 42.0455 57.8177 45.6337 57.8177 50C57.8177 54.3662 54.2295 57.9545 49.8632 57.9545C45.4969 57.9545 41.9086 54.3662 41.9086 50C41.9086 45.6337 45.4969 42.0455 49.8632 42.0455ZM27.349 43.4659C24.6898 45.6243 22.2645 47.8086 20.1402 50C22.2645 52.1914 24.6898 54.3757 27.349 56.5341C27.2272 54.4001 27.1359 52.2117 27.1359 50C27.1359 47.7759 27.2258 45.613 27.349 43.4659ZM72.4129 43.5011C72.5353 45.6344 72.5905 47.7903 72.5905 50C72.5905 52.2117 72.4992 54.4001 72.3774 56.5341C75.0366 54.3757 77.4619 52.1914 79.5862 50C77.4722 47.8192 75.0568 45.6498 72.4129 43.5014V43.5011ZM82.6402 53.3734C79.5365 56.5516 75.902 59.7058 71.8447 62.7129C71.2657 67.726 70.3492 72.4312 69.1459 76.7044C69.6982 76.8021 70.2419 76.8739 70.7794 76.953C71.8707 73.8574 74.8212 71.5909 78.2723 71.5909C81.3524 71.5909 84.0198 73.4095 85.3391 75.9943C87.1746 75.199 88.4577 74.0915 89.2453 72.7273C90.2991 70.902 90.5062 68.5875 89.7425 65.6604C88.9788 62.7335 87.1762 59.277 84.4868 55.6818C83.9118 54.9133 83.2954 54.1538 82.6402 53.3736V53.3734ZM17.0862 53.3734C16.4309 54.1536 15.8145 54.9131 15.2396 55.6816C12.5502 59.2768 10.7476 62.7333 9.98393 65.6602C9.22023 68.5873 9.42733 70.9018 10.4811 72.7271C11.1277 73.8471 12.1188 74.7928 13.464 75.5325C14.855 73.1936 17.4202 71.5909 20.3177 71.5909C23.8253 71.5909 26.8352 73.9208 27.8817 77.0953C28.7476 76.9862 29.6379 76.8302 30.545 76.6692C29.3474 72.4069 28.4588 67.7101 27.8817 62.7131C23.8243 59.706 20.1899 56.5518 17.0862 53.3736V53.3734ZM66.7666 66.264C64.9766 67.4375 63.1444 68.5659 61.2268 69.6731C59.3102 70.7797 57.3848 71.8008 55.474 72.7625C58.6725 73.9851 61.7832 74.9663 64.7425 75.7101C65.5705 72.7952 66.229 69.618 66.7666 66.264ZM32.9598 66.264C33.4999 69.6337 34.1863 72.8193 35.0194 75.7455C37.9702 75.0005 41.0639 73.9831 44.2524 72.7625C42.3402 71.7998 40.4187 70.7812 38.4996 69.6731C36.582 68.5659 34.7498 67.4375 32.9598 66.264ZM49.8987 75.3905C45.2494 77.4054 40.7243 78.9804 36.4044 80.078C36.7535 81.0388 37.1261 81.9631 37.5052 82.8477C39.2736 86.9739 41.3541 90.2051 43.5067 92.3294C45.6592 94.4537 47.7555 95.4544 49.8632 95.4544C51.9709 95.4544 54.0672 94.4537 56.2197 92.3294C58.3723 90.2051 60.4528 86.9739 62.2211 82.8477C62.6003 81.9631 62.9728 81.0388 63.322 80.078C59.0308 78.9872 54.5174 77.3882 49.8987 75.3905ZM78.2723 76.1364C76.3626 76.1364 74.8632 77.6358 74.8632 79.5455C74.8632 81.4551 76.3626 82.9545 78.2723 82.9545C80.182 82.9545 81.6814 81.4551 81.6814 79.5455C81.6814 77.6358 80.182 76.1364 78.2723 76.1364ZM20.3177 76.1364C18.408 76.1364 16.9087 77.6358 16.9087 79.5455C16.9087 81.4551 18.408 82.9545 20.3177 82.9545C22.2274 82.9545 23.7268 81.4551 23.7268 79.5455C23.7268 77.6358 22.2274 76.1364 20.3177 76.1364Z" />
</svg>
