<svg width="100" height="100" viewBox="0 0 100 100" fill="currentColor" xmlns="http://www.w3.org/2000/svg">
<path d="M90.7545 5.02604C89.9986 5.12571 89.2997 5.4813 88.7741 6.03361L69.6998 25.108H69.665L64.3839 30.4238H64.3492L28.702 66.1057H28.6673L23.6642 71.1436H23.6294L6.50071 88.307C6.15945 88.6095 5.88382 88.9787 5.69086 89.3919C5.4979 89.805 5.39169 90.2534 5.37881 90.7092C5.36592 91.165 5.44663 91.6186 5.61594 92.042C5.78526 92.4654 6.03958 92.8496 6.36321 93.1708C6.68684 93.4921 7.07289 93.7436 7.49753 93.9098C7.92217 94.076 8.37638 94.1533 8.83209 94.1371C9.2878 94.1208 9.73533 94.0113 10.1471 93.8153C10.5588 93.6193 10.9259 93.3409 11.2259 92.9975L30.2655 73.9578C36.4555 76.1438 43.0962 77.328 50 77.328C70.2655 77.328 88.2527 67.1028 99.4057 51.4438C100.198 50.3254 100.198 48.7057 99.4057 47.5872C93.4395 39.2107 85.5154 32.4027 76.3358 27.8875L93.4993 10.724C93.9997 10.2361 94.3342 9.60333 94.4556 8.91505C94.5769 8.22677 94.4791 7.51775 94.1757 6.8881C93.8724 6.25844 93.379 5.73996 92.7652 5.40585C92.1513 5.07174 91.448 4.93889 90.7545 5.02604ZM50 21.7378C29.7344 21.7378 11.7473 31.9285 0.594256 47.5872C-0.198086 48.7057 -0.198086 50.3254 0.594256 51.4438C5.20803 57.9216 10.9884 63.4599 17.6187 67.7387L22.4829 62.8745C16.7797 59.3867 11.7359 54.8607 7.57777 49.5329C17.6212 36.6518 32.835 28.4086 50 28.4086C52.2182 28.4086 54.3858 28.558 56.5318 28.8256L62.3341 23.0234C58.3484 22.1803 54.2251 21.7378 50 21.7378ZM50 32.8559C40.829 32.8559 33.323 40.3619 33.323 49.5329C33.323 50.3255 33.3883 51.0968 33.4967 51.8607L52.3278 33.0296C51.5639 32.9212 50.7926 32.8559 50 32.8559ZM71.298 32.9253C79.5802 36.5907 86.8089 42.3336 92.4222 49.5329C82.3785 62.4019 67.1555 70.6572 50 70.6572C45.0042 70.6572 40.1992 69.9239 35.616 68.6073L40.7929 63.4304C43.4409 65.1899 46.6042 66.21 50 66.21C59.171 66.21 66.677 58.7038 66.677 49.5329C66.677 46.1397 65.6545 42.9725 63.8975 40.3258L71.298 32.9253ZM59.0334 45.1899C59.6506 46.4985 60.0062 47.9789 60.0062 49.5329C60.0062 55.0987 55.5658 59.5391 50 59.5391C48.4443 59.5391 46.9667 59.1848 45.657 58.5663L59.0334 45.1899Z" />
</svg>
