<svg width="14" height="8" viewBox="0 0 14 8" fill="none" xmlns="http://www.w3.org/2000/svg">
<path fill-rule="evenodd" clip-rule="evenodd" d="M0.0139599 1.16998C0.0372099 1.30469 0.08826 1.43424 0.16326 1.54855C0.20116 1.60635 0.24527 1.6568 0.29232 1.70721L6.29258 7.70742C6.33688 7.74882 6.34698 7.76042 6.39548 7.79712C6.44988 7.83842 6.50858 7.87412 6.57028 7.90342C6.83978 8.03162 7.15968 8.03162 7.42918 7.90342C7.49088 7.87412 7.54958 7.83842 7.60398 7.79712C7.65238 7.76042 7.66258 7.74882 7.70688 7.70742L13.7071 1.70721C13.7485 1.66285 13.7601 1.6527 13.7968 1.6043C13.8933 1.4772 13.9584 1.32719 13.9855 1.16998C14.0048 1.05773 14.0048 0.942368 13.9855 0.830118C13.97 0.740358 13.9422 0.652807 13.9031 0.570557C13.7546 0.258137 13.4464 0.0406274 13.1023 0.00522738C12.9663 -0.00872262 12.8278 0.0055272 12.6975 0.0468772C12.5889 0.0813372 12.4865 0.134387 12.3958 0.203187C12.3473 0.239937 12.3372 0.251487 12.2929 0.292887L6.99968 5.58602L1.70658 0.292887L1.65668 0.246288C1.60967 0.208038 1.59872 0.197137 1.54792 0.163837C1.45272 0.101387 1.34686 0.0553774 1.23626 0.0284274C1.14775 0.00687741 1.05635 -0.00252274 0.96535 0.000577263C0.61958 0.0123773 0.29732 0.208388 0.12776 0.509898C0.0719599 0.609158 0.0333099 0.717908 0.0139599 0.830118C0.00364988 0.890018 0.00416 0.905417 0 0.965917V1.03418C0.00416 1.09468 0.00364988 1.11008 0.0139599 1.16998Z" fill="#94A2A1"/>
</svg>
