<svg width="100" height="100" viewBox="0 0 100 100" fill="currentColor" xmlns="http://www.w3.org/2000/svg">
<path d="M93.4234 100H6.57658C2.95045 100 0 97.0495 0 93.4234V6.57658C0 2.95045 2.95045 0 6.57658 0H93.4122C97.0383 0 99.9887 2.95045 99.9887 6.57658V93.4122C100 97.0496 97.0495 100 93.4234 100ZM6.75676 93.2432H93.2432V6.75676H6.75676V93.2432Z" />
<path d="M53.3784 3.37839H46.6216V96.6216H53.3784V3.37839Z" />
<path d="M96.6216 46.6216H3.37839V53.3784H96.6216V46.6216Z" />
<path d="M30.0113 16.1149H23.2545V36.7005H30.0113V16.1149Z" />
<path d="M36.937 23.0293H16.3513V29.786H36.937V23.0293Z" />
<path d="M36.3058 78.0679L21.7497 63.5119L16.972 68.2896L31.5281 82.8456L36.3058 78.0679Z" />
<path d="M36.2969 68.2812L31.5192 63.5035L16.9632 78.0596L21.7409 82.8373L36.2969 68.2812Z" />
<path d="M83.5022 23.0293H62.9167V29.786H83.5022V23.0293Z" />
<path d="M83.5022 63.9414H62.9167V70.6981H83.5022V63.9414Z" />
<path d="M83.5022 75.6419H62.9167V82.3987H83.5022V75.6419Z" />
</svg>
