<svg width="100" height="100" viewBox="0 0 100 100" fill="currentColor" xmlns="http://www.w3.org/2000/svg">
<path d="M99.9978 19.2594C99.9978 19.0861 99.98 18.9105 99.9467 18.7327C99.6589 17.2416 98.2178 16.2683 96.7356 16.5594C86.4144 18.5983 80.3622 17.1272 74.7133 15.7516C69.9956 14.6061 65.5233 13.5194 59.3089 14.2227C55.4011 14.6649 52.3611 16.2749 50.2689 19.0194C50.1744 19.1427 50.0922 19.2805 50.0011 19.4094C49.91 19.2805 49.8289 19.1438 49.7333 19.0194C47.6356 16.2749 44.5989 14.6649 40.6933 14.2227C34.4722 13.5205 30.0044 14.6061 25.2867 15.7516C19.6378 17.1249 13.5878 18.5972 3.26667 16.5594C1.78222 16.2683 0.343333 17.2405 0.0533332 18.7327C0.0199998 18.9083 0.00444465 19.0849 0.00444465 19.2594H0V82.6772C0 84.0638 1.02222 85.2127 2.34778 85.4027C13.7322 87.6272 20.3733 86.0138 26.5722 84.5061C32.8011 82.9938 38.5433 81.5961 49.1122 85.2683C49.1378 85.2772 49.1667 85.2794 49.1922 85.2883C49.2922 85.3183 49.3944 85.3416 49.4956 85.3594C49.5733 85.3749 49.65 85.3894 49.7278 85.3983C49.8178 85.4072 49.9089 85.4072 50 85.4072C50.0911 85.4072 50.1822 85.4072 50.2722 85.3983C50.3478 85.3894 50.4256 85.3749 50.5022 85.3594C50.6067 85.3394 50.7089 85.3183 50.81 85.2883C50.8344 85.2794 50.8622 85.2772 50.8867 85.2683C61.4567 81.5961 67.1989 82.9938 73.4267 84.5061C79.63 86.0127 86.27 87.6272 97.65 85.4027C98.9811 85.2138 100 84.0649 100 82.6783V19.2594H99.9978ZM25.2878 79.1738C20.0556 80.4461 14.4778 81.7994 5.48222 80.3727V22.5205C14.9967 23.9038 20.9678 22.4538 26.5744 21.0894C30.7978 20.0627 34.7978 19.0894 40.0933 19.6883C42.46 19.9561 44.2378 20.8516 45.3889 22.3561C46.62 23.9705 47.2633 26.3738 47.2633 29.5427V78.9494C37.4367 76.2216 31.5822 77.6438 25.2878 79.1738ZM94.52 80.3727C85.5245 81.7994 79.9489 80.4449 74.7133 79.1738C68.4189 77.6438 62.5644 76.2216 52.74 78.9494V29.5416C52.74 26.3727 53.3811 23.9705 54.6144 22.3549C55.76 20.8516 57.5456 19.9549 59.9078 19.6872C65.2056 19.0883 69.2056 20.0605 73.4311 21.0883C79.04 22.4527 85.0078 23.9027 94.5233 22.5194V80.3738H94.52V80.3727Z" />
<path d="M59.3089 26.6571C57.8055 26.8216 56.7255 28.1816 56.8878 29.6916C57.0544 31.1994 58.4067 32.2871 59.9055 32.1205C65.2022 31.5205 69.2033 32.4938 73.4289 33.5205C77.9255 34.6149 82.6544 35.7638 89.3622 35.4483C90.87 35.3816 92.0411 34.1005 91.9755 32.5871C91.9122 31.0727 90.6366 29.8994 89.1278 29.9649C83.1778 30.2449 78.8378 29.1894 74.7133 28.1871C69.9955 27.0394 65.5255 25.9549 59.3089 26.6571Z" />
<path d="M39.7478 61.0338C34.0189 60.5394 29.7667 61.5716 25.2856 62.6583C22.3778 63.365 19.3656 64.0972 15.7611 64.3672C14.2544 64.4816 13.1244 65.7994 13.2378 67.3127C13.3511 68.8305 14.6633 69.9638 16.17 69.8505C20.1522 69.5538 23.4178 68.7583 26.5722 67.9927C30.5833 67.0183 34.3933 66.0938 39.3011 66.5172C40.8067 66.6405 42.1322 65.5138 42.2522 64.0005C42.3789 62.4861 41.2567 61.155 39.7478 61.0338Z" />
<path d="M39.6611 26.5538C33.9744 26.0772 29.7411 27.106 25.2855 28.1872C22.3778 28.8927 19.3655 29.6272 15.7611 29.8972C14.3244 30.0038 13.2267 31.2116 13.23 32.6383H13.2267V51.8727C13.2267 53.3916 14.4522 54.626 15.9644 54.626C16.0844 54.626 16.2033 54.6172 16.3167 54.6027C20.2289 54.2972 23.4567 53.5138 26.5711 52.756C30.5789 51.7816 34.3922 50.8583 39.3 51.2805C40.8067 51.406 42.1311 50.2805 42.25 48.7638C42.2611 48.6883 42.2633 48.6127 42.2633 48.5383V29.3038C42.2644 27.8294 41.11 26.6249 39.6611 26.5538ZM36.7833 45.6683C32.4755 45.6749 28.9578 46.5294 25.2833 47.4205C23.2044 47.926 21.0722 48.4438 18.7055 48.7983V35.116C21.5855 34.7316 24.1122 34.1172 26.57 33.5194C29.8711 32.7194 33.0322 31.9505 36.7822 31.9405V45.6683H36.7833Z" />
<path d="M89.1278 41.785C83.1778 42.065 78.8378 41.0094 74.7133 40.0083C69.9955 38.8616 65.5233 37.775 59.3089 38.4783C57.8055 38.6439 56.7255 40.0016 56.8878 41.5105C57.0544 43.0183 58.4067 44.1072 59.9055 43.9405C65.2022 43.3416 69.2033 44.3127 73.4289 45.3416C77.9255 46.435 82.6544 47.5839 89.3622 47.2672C90.87 47.2005 92.0411 45.9205 91.9755 44.405C91.9122 42.8927 90.6355 41.7183 89.1278 41.785Z" />
<path d="M89.1278 53.6049C83.1778 53.8838 78.8378 52.8316 74.7133 51.8271C69.9955 50.6805 65.5233 49.596 59.3089 50.2982C57.8055 50.4638 56.7255 51.8216 56.8878 53.3305C57.0544 54.8394 58.4067 55.9282 59.9055 55.7627C65.2022 55.1638 69.2033 56.1371 73.4289 57.1627C77.9255 58.2571 82.6544 59.4071 89.3622 59.0905C90.87 59.0249 92.0411 57.7427 91.9755 56.2294C91.9122 54.7127 90.6355 53.5382 89.1278 53.6049Z" />
<path d="M77.7578 64.3583C76.43 64.066 75.5633 63.8549 74.7133 63.6472C69.9933 62.5005 65.5233 61.4172 59.3089 62.1172C57.8055 62.2827 56.7255 63.6427 56.8878 65.1494C57.0544 66.6572 58.4067 67.746 59.9055 67.5805C65.2022 66.9838 69.2033 67.956 73.4267 68.9827C74.6078 69.2683 75.8078 69.5616 76.6033 69.7349C78.0789 70.056 79.5378 69.1138 79.8578 67.6283C80.1755 66.1449 79.2378 64.6794 77.7578 64.3583Z" />
</svg>
