<svg width="232" height="230" viewBox="0 0 232 230" fill="#E9E9E9" xmlns="http://www.w3.org/2000/svg">
<path d="M111.354 226.455C108.859 224.748 105.314 222.122 103.476 220.547C101.638 218.84 99.8 217.527 99.1436 217.527C98.6184 217.527 96.5177 216.083 94.5483 214.245C92.5789 212.407 90.4783 210.963 89.9531 210.963C89.2966 210.963 86.0143 208.862 82.732 206.236C79.3184 203.741 73.2789 199.278 69.3402 196.52C65.4014 193.763 60.0184 189.824 57.5238 187.986C55.0293 186.148 43.2129 177.614 31.2653 169.212C11.4401 155.163 9.60205 153.456 9.60205 149.912C9.60205 146.892 10.2585 145.841 12.2279 145.579C14.7225 145.185 44.0007 165.404 93.3667 201.378C99.0123 205.448 104.658 209.518 105.971 210.175C114.636 215.295 121.857 221.991 121.857 224.748C121.857 227.374 119.625 229.344 116.868 229.344C116.343 229.344 113.848 228.031 111.354 226.455Z"/>
<path d="M146.671 218.578C141.288 214.639 121.069 200.065 101.769 186.017C82.338 171.969 65.27 159.496 63.6945 158.446C62.119 157.395 55.9482 152.931 50.0401 148.599C44.1319 144.266 30.3462 134.55 19.4489 126.935C2.2496 114.856 -0.244953 112.756 0.0176323 109.867C0.542802 105.272 4.87546 105.009 11.834 109.342C14.985 111.312 17.7421 113.281 18.136 113.675C18.5299 114.069 22.5999 117.088 27.3265 120.371C35.9918 126.279 143.126 203.216 155.731 212.538C161.507 216.871 162.689 218.315 162.295 221.203C161.639 226.98 157.437 226.324 146.671 218.578Z"/>
<path d="M174.374 205.973C170.435 203.216 162.689 197.833 157.306 194.157C151.923 190.35 144.571 185.229 140.895 182.735C137.35 180.24 132.098 176.564 129.472 174.594C126.846 172.625 116.474 164.879 106.496 157.395C82.0756 139.277 76.0362 134.682 61.4627 123.128C54.5042 117.614 46.8892 111.705 44.526 109.867C42.1627 108.029 38.4865 105.272 36.5171 103.697C34.5477 101.99 32.447 100.677 32.0532 100.677C29.9525 100.677 11.5715 85.972 11.5715 84.3965C11.5715 78.6197 16.1668 76.2564 19.4491 80.3265C20.3681 81.3768 21.5498 82.2958 22.0749 82.2958C23.6504 82.2958 39.143 92.9305 50.9593 102.121C65.6641 113.543 93.1042 134.55 96.2552 136.782C97.6994 137.833 102.032 140.984 105.84 143.609C112.535 148.467 123.827 156.739 131.573 162.647C133.674 164.354 136.431 166.192 137.612 166.98C139.844 168.292 150.085 175.776 152.842 178.008C153.63 178.665 156.518 180.634 159.407 182.472C162.164 184.179 166.759 187.461 169.385 189.431C172.011 191.531 176.344 194.682 178.969 196.52C187.372 202.429 188.816 204.004 188.816 207.549C188.816 210.437 188.291 210.963 185.272 210.963C183.171 210.963 178.313 208.599 174.374 205.973Z"/>
<path d="M200.239 190.087C195.906 187.855 166.628 166.454 137.875 144.528C113.192 125.754 53.06 83.6086 50.828 83.6086C50.3029 83.6086 49.6464 83.2148 49.3838 82.6896C49.2525 82.0331 43.8695 78.0943 37.4362 73.893C23.2566 64.1773 21.0246 61.9454 22.8627 58.9256C23.6505 57.744 25.226 56.5624 26.4076 56.2998C28.7709 55.7746 68.9464 81.9018 97.5682 102.646C126.846 123.784 135.512 130.086 137.087 131.53C138.006 132.318 145.621 137.832 154.024 144.003C162.427 150.174 178.05 161.465 188.554 169.343C199.057 177.089 208.116 183.391 208.642 183.391C209.167 183.391 210.086 184.704 210.611 186.279C211.136 188.249 210.742 189.562 209.036 190.875C206.016 193.107 206.016 193.107 200.239 190.087Z"/>
<path d="M213.762 164.616C210.611 163.172 171.748 134.813 168.072 131.268C167.153 130.349 165.84 129.561 165.315 129.561C164.79 129.561 163.083 128.379 161.507 126.935C159.144 124.703 117.524 94.7685 93.6292 78.0943C72.4911 63.3896 52.6659 50.3916 47.1516 47.5032C39.0115 43.4331 37.1734 41.2011 39.1428 37.7875C39.9305 36.212 41.3748 35.0304 42.4251 35.0304C44.7884 35.0304 63.1693 44.746 68.6836 48.8161C70.9156 50.6542 73.2788 52.0984 73.804 52.0984C74.3292 52.0984 76.6924 53.5426 79.0557 55.3807C81.419 57.2188 83.7822 58.6631 84.1761 58.6631C85.6203 58.6631 121.726 84.2651 152.317 107.11C163.346 115.381 183.302 130.086 196.694 139.671C210.086 149.386 221.508 158.183 222.033 159.233C223.609 161.99 221.902 166.323 219.276 166.192C218.094 166.192 215.6 165.404 213.762 164.616Z"/>
<path d="M223.215 137.045C219.407 134.944 201.814 122.865 199.714 120.896C198.795 119.977 195.906 118.007 193.149 116.301C190.392 114.594 181.07 108.16 172.273 101.99C163.608 95.6877 155.599 90.1734 154.549 89.7795C153.499 89.2543 148.247 85.5781 142.864 81.6394C137.481 77.7006 128.028 71.0047 121.857 66.9346C115.686 62.7332 110.435 59.0571 110.041 58.6632C109.647 58.2693 106.102 55.7747 102.163 53.0176C98.2244 50.3917 91.1346 45.5339 86.5394 42.1203C76.955 35.2931 59.3618 24.1332 55.8169 22.8203C54.3727 22.2951 53.585 20.5883 53.585 17.5686C53.585 10.6101 53.9788 10.6101 65.4013 16.7809C73.6727 21.2448 82.4693 26.7591 85.489 29.2536C87.5897 30.9604 89.8217 32.4047 90.4782 32.4047C91.1346 32.4047 94.4169 34.3741 97.8305 36.7373C101.375 38.9693 105.183 41.5951 106.365 42.2516C113.454 46.453 134.855 61.4203 136.168 63.1271C137.218 64.3088 138.4 65.2278 139.056 65.2278C140.501 65.2278 223.871 124.966 228.598 129.299C232.799 133.237 233.062 135.469 229.648 137.439C226.497 139.014 226.891 139.014 223.215 137.045Z"/>
<path d="M205.753 93.4556C204.046 92.4053 201.814 91.2236 200.764 90.6984C199.714 90.1733 188.16 82.5583 175.162 73.893C162.033 65.0964 145.752 54.4617 138.925 50.1291C132.098 45.9277 126.19 41.9889 125.796 41.5951C125.402 41.2012 123.958 40.2821 122.514 39.3631C121.069 38.444 114.899 34.6365 108.728 30.6978C102.557 26.759 92.0536 20.1944 85.489 16.1243C75.9047 10.0848 73.2788 7.85287 73.2788 5.48961C73.2788 1.94471 76.4298 -1.07502 78.7931 0.3692C79.7121 0.89437 90.872 7.72158 103.476 15.5991C126.19 29.7787 131.573 33.1923 163.871 54.1991C172.93 59.976 183.958 67.0658 188.554 69.9542C203.652 79.4073 213.105 86.891 213.499 89.7794C214.156 93.8495 209.954 95.8189 205.753 93.4556Z"/>
<path d="M200.633 65.2278C195.906 62.3394 191.442 59.5822 190.786 58.9258C189.998 58.2693 183.433 54.3305 176.344 50.1292C169.123 45.9278 160.457 40.5448 156.912 38.1816C153.499 35.687 150.479 33.7176 150.085 33.7176C149.035 33.7176 121.595 16.5183 118.838 14.155C115.555 11.3979 116.343 5.62102 120.019 5.09585C122.382 4.70197 138.138 13.4986 157.306 25.8401C160.326 27.6782 181.333 40.8074 183.827 42.2516C195.775 49.3414 212.449 60.5013 214.287 62.4707C216.125 64.4401 216.257 65.6217 215.075 67.7224C213.106 71.5299 210.48 71.0047 200.633 65.2278Z"/>
</svg>
