<svg width="574" height="96" viewBox="0 0 574 96" fill="none" xmlns="http://www.w3.org/2000/svg">
<path d="M20.56 32.36H0.99V14.87H62.1V32.36H42.64V81.15H20.56V32.36Z" fill="#004071"/>
<path d="M85.92 31.96C101.44 31.96 113.36 42.1 113.36 58.99V62.67H77.5C78.59 65.75 82.42 68.73 89.09 68.73C93.57 68.73 98.38 67.24 101.01 65.35L109.1 76.38C103.85 80.45 94.45 82.34 86.58 82.34C70.07 82.34 57.17 72.9 57.17 57.1C57.17 43.19 68.87 31.96 85.92 31.96ZM77.28 51.34H94.66C94.11 49.25 92.25 45.58 85.91 45.58C79.91 45.58 77.94 49.15 77.28 51.34Z" fill="#004071"/>
<path d="M149.53 76.58C146.58 79.96 140.13 82.34 133.57 82.34C125.7 82.34 115.42 77.47 115.42 66.54C115.42 54.62 125.7 51.73 133.57 51.73C140.46 51.73 146.69 53.72 149.53 57V51.53C149.53 48.15 146.14 45.57 139.69 45.57C134.77 45.57 129.19 47.36 125.04 50.24L118.37 39.21C125.48 34.04 135.31 31.95 143.3 31.95C156.42 31.95 169.21 36.12 169.21 52.12V81.14H149.53V76.58ZM149.53 65.45C148.22 63.76 144.83 62.87 141.77 62.87C138.49 62.87 134.88 63.87 134.88 66.85C134.88 69.83 138.49 70.73 141.77 70.73C144.83 70.73 148.22 69.84 149.53 68.15V65.45Z" fill="#004071"/>
<path d="M204.32 31.96C216.35 31.96 223.78 36.93 226.73 41L214.05 51.83C212.41 49.54 209.35 47.76 205.19 47.76C199.61 47.76 194.8 50.94 194.8 57.1C194.8 63.26 199.61 66.54 205.19 66.54C209.34 66.54 212.41 64.55 214.05 62.37L226.73 73.3C223.78 77.27 216.34 82.34 204.32 82.34C187.59 82.34 174.69 72.4 174.69 57.1C174.69 41.9 187.59 31.96 204.32 31.96Z" fill="#004071"/>
<path d="M266.67 54.42C266.67 49.45 263.72 47.76 259.02 47.76C254.54 47.76 252.24 49.85 250.6 51.54V81.15H230.92V14.87H250.6V38.62C253.66 35.44 259.45 31.96 268.75 31.96C281 31.96 286.35 38.52 286.35 46.87V81.16H266.67V54.42Z" fill="#004071"/>
<path d="M342.05 43.59L332.65 81.15H309.47L288.59 14.87H313.3L322.7 55.42L333.74 14.87H350.36L361.4 55.42L370.69 14.87H395.51L374.63 81.15H351.45L342.05 43.59Z" fill="#007BAF"/>
<path d="M394.95 14.87H419.99L435.73 59.49L451.47 14.87H476.5L449.61 81.15H421.84L394.95 14.87Z" fill="#007BAF"/>
<path d="M560.14 14.7C541.66 -3.78 511.58 -3.78 493.1 14.7C474.62 33.18 474.62 63.24 493.1 81.72C502.34 90.96 514.49 95.58 526.62 95.58C529.51 95.58 532.42 95.32 535.28 94.77C539.43 94.02 543.5 92.7 547.37 90.82C551.99 88.57 556.32 85.54 560.14 81.72C564 77.86 567.04 73.5 569.27 68.85C571.15 64.98 572.47 60.91 573.22 56.76C575.93 41.96 571.57 26.13 560.14 14.7ZM555.84 69.35L533.66 47.17L525.64 55.19L547.84 77.39C545.04 79.44 541.98 81.06 538.74 82.21L517.34 60.82L517.3 48.2L527.29 38.3L539.18 38.77L560.61 60.2C559.5 63.42 557.89 66.5 555.84 69.35ZM544.08 27.62L505.92 26.09L506.01 65.5L524.74 84.23C515.81 83.77 507.48 80.08 501.12 73.7C494.31 66.89 490.56 57.83 490.56 48.2C490.56 38.58 494.31 29.52 501.12 22.71C508.16 15.67 517.38 12.15 526.62 12.15C535.86 12.15 545.09 15.67 552.12 22.71C558.61 29.2 562.11 37.6 562.58 46.13L544.08 27.62Z" fill="#E5AD23"/>
</svg>
