<svg width="100" height="100" viewBox="0 0 100 100" fill="currentColor" xmlns="http://www.w3.org/2000/svg">
<g clip-path="url(#clip0)">
<path d="M50 22C29.7424 22 11.7622 32.1867 0.613573 47.8393C0.214392 48.4028 0 49.0763 0 49.7668C0 50.4574 0.214392 51.1309 0.613573 51.6944C11.7622 67.3472 29.7424 77.5684 50 77.5684C70.2576 77.5684 88.2378 67.3472 99.3864 51.6944C99.7856 51.1309 100 50.4574 100 49.7668C100 49.0763 99.7856 48.4028 99.3864 47.8393C88.2378 32.1867 70.2576 22 50 22ZM50 28.6682C67.1582 28.6682 82.3661 36.9081 92.4056 49.7842C82.3658 62.6482 67.1488 70.9002 50 70.9002C32.8512 70.9002 17.6342 62.6482 7.59436 49.7842C17.6339 36.9081 32.8418 28.6682 50 28.6682ZM50 33.1137C40.8326 33.1137 33.3295 40.6168 33.3295 49.7842C33.3295 58.9515 40.8326 66.4547 50 66.4547C59.1674 66.4547 66.6705 58.9515 66.6705 49.7842C66.6705 40.6168 59.1674 33.1137 50 33.1137ZM50 39.7819C55.5636 39.7819 60.0023 44.2206 60.0023 49.7842C60.0023 55.3478 55.5636 59.7865 50 59.7865C44.4364 59.7865 39.9977 55.3478 39.9977 49.7842C39.9977 44.2206 44.4364 39.7819 50 39.7819Z" />
</g>
<defs>
<clipPath id="clip0">
<rect width="100" height="100" fill="white"/>
</clipPath>
</defs>
</svg>
