<svg width="14" height="8" viewBox="0 0 14 8" fill="none" xmlns="http://www.w3.org/2000/svg">
<path fill-rule="evenodd" clip-rule="evenodd" d="M13.986 6.8296C13.9627 6.69489 13.9117 6.56534 13.8367 6.45103C13.7988 6.39323 13.7547 6.34278 13.7076 6.29237L7.70738 0.292155C7.66308 0.250755 7.65297 0.239154 7.60447 0.202454C7.55007 0.161155 7.49137 0.125455 7.42967 0.0961551C7.16018 -0.032045 6.84027 -0.032045 6.57077 0.096155C6.50907 0.125455 6.45037 0.161155 6.39597 0.202454C6.34757 0.239154 6.33738 0.250755 6.29308 0.292155L0.292874 6.29236C0.251475 6.33672 0.239874 6.34687 0.203174 6.39527C0.106673 6.52237 0.0415736 6.67238 0.014474 6.82959C-0.00482645 6.94184 -0.00482646 7.0572 0.014474 7.16945C0.029974 7.25921 0.0577756 7.34676 0.0968752 7.42901C0.245376 7.74143 0.553574 7.95894 0.897674 7.99434C1.03367 8.00829 1.17217 7.99404 1.30247 7.95269C1.41107 7.91823 1.51347 7.86518 1.60417 7.79638C1.65267 7.75963 1.66277 7.74808 1.70707 7.70668L7.00028 2.41356L12.2934 7.70669L12.3433 7.75328C12.3903 7.79153 12.4012 7.80244 12.452 7.83574C12.5472 7.89819 12.6531 7.9442 12.7637 7.97115C12.8522 7.9927 12.9436 8.0021 13.0346 7.999C13.3804 7.9872 13.7026 7.79119 13.8722 7.48968C13.928 7.39042 13.9666 7.28167 13.986 7.16946C13.9963 7.10956 13.9958 7.09416 14 7.03366L14 6.9654C13.9958 6.9049 13.9963 6.8895 13.986 6.8296Z" fill="#94A2A1"/>
</svg>
