<svg width="8" height="14" viewBox="0 0 8 14" fill="none" xmlns="http://www.w3.org/2000/svg">
<path fill-rule="evenodd" clip-rule="evenodd" d="M1.17017 13.9858C1.30488 13.9625 1.43443 13.9115 1.54874 13.8365C1.60654 13.7986 1.65699 13.7545 1.7074 13.7074L7.70761 7.70718C7.74901 7.66288 7.76061 7.65278 7.79731 7.60428C7.83861 7.54988 7.87431 7.49118 7.90361 7.42948C8.03181 7.15998 8.03181 6.84008 7.90361 6.57058C7.87431 6.50888 7.83861 6.45018 7.79731 6.39578C7.76061 6.34738 7.74901 6.33718 7.70761 6.29288L1.7074 0.292676C1.66304 0.251276 1.65289 0.239675 1.60449 0.202975C1.47739 0.106475 1.32738 0.0413755 1.17017 0.0142755C1.05792 -0.0050245 0.942561 -0.00502449 0.830311 0.0142755C0.740551 0.0297755 0.653001 0.0575768 0.570751 0.0966768C0.258331 0.245177 0.0408213 0.553375 0.00542136 0.897475C-0.00852864 1.03348 0.00572119 1.17198 0.0470712 1.30228C0.0815312 1.41088 0.134581 1.51328 0.203381 1.60398C0.240131 1.65248 0.251681 1.66258 0.293081 1.70688L5.58621 7.00008L0.293082 12.2932L0.246482 12.3431C0.208232 12.3901 0.197331 12.401 0.164031 12.4518C0.101581 12.547 0.0555719 12.6529 0.0286219 12.7635C0.00707191 12.852 -0.00232823 12.9434 0.00077177 13.0344C0.0125718 13.3802 0.208582 13.7024 0.510092 13.872C0.609352 13.9278 0.718102 13.9664 0.830312 13.9858C0.890212 13.9961 0.905611 13.9956 0.966111 13.9998L1.03437 13.9998C1.09487 13.9956 1.11027 13.9961 1.17017 13.9858Z" fill="#94A2A1"/>
</svg>
