<svg width="255" height="257" viewBox="0 0 255 257" fill="none" xmlns="http://www.w3.org/2000/svg">
<path d="M198.688 247.779L198.676 247.782L198.664 247.787C192.304 249.968 177.765 252.712 169.762 253.302L169.749 253.303C162.361 253.881 150.154 253.359 142.682 252.219C131.723 250.53 113.169 244.016 100.73 237.36L100.712 237.351L100.693 237.342C99.2895 236.616 97.6724 235.76 96.3646 235.067C95.3443 234.527 94.5122 234.086 94.1164 233.885L94.105 233.879L94.0937 233.874C93.7441 233.7 93.4081 233.483 93.1664 233.289C93.1036 233.239 93.0563 233.197 93.0226 233.166C92.7093 232.568 92.2524 232.047 91.6951 231.672C91.3804 231.461 90.7839 231.142 90.0373 231.075C89.9232 231.01 89.7797 230.925 89.6043 230.816C88.8644 230.357 87.8123 229.635 86.5174 228.695C83.9415 226.825 80.5586 224.205 77.0965 221.38L77.093 221.377C68.5956 214.465 58.9798 205.218 51.7794 196.872L51.7746 196.867L51.7698 196.861C31.0258 173.07 22.7425 160.594 12.0172 137.546C12.0166 137.545 12.0161 137.544 12.0155 137.542L5.03203 122.423L4.11201 114.76L4.11188 114.759C3.05997 106.025 2.9596 104.273 3.32681 95.3296C3.44535 92.5745 4.21608 88.0516 5.30979 83.3991C6.40237 78.7515 7.74833 74.2674 8.92022 71.5813L8.92025 71.5813L8.92552 71.5691C12.3412 63.6378 14.452 58.8119 15.8576 55.7635C17.2849 52.6678 17.9052 51.5882 18.3302 51.002L18.3405 50.9879L18.3505 50.9737C19.2451 49.7075 20.159 47.8922 20.5315 46.7346L20.5816 46.5788L20.6134 46.4183C20.6293 46.3379 20.6532 46.2613 20.6777 46.1973C20.7596 46.1305 20.814 46.0793 20.8361 46.0585C20.839 46.0558 20.8414 46.0536 20.8432 46.0519C20.9665 45.9375 21.0758 45.8214 21.1592 45.7294C21.3306 45.5404 21.5195 45.3123 21.7105 45.0729C22.0988 44.5862 22.5941 43.9287 23.1559 43.1575C24.2804 41.6138 25.7289 39.5353 27.2329 37.2733C28.7549 35.0757 30.2117 33.036 31.3315 31.5319C31.896 30.7737 32.3579 30.1743 32.6915 29.7657C32.7917 29.643 32.8714 29.5485 32.9322 29.4786C33.2237 29.2873 33.458 29.0876 33.5975 28.9667C33.8974 28.7067 34.218 28.3959 34.5368 28.0663C35.1727 27.4086 35.8952 26.5785 36.5723 25.7058C40.067 21.3434 43.2843 18.459 49.8514 13.895L49.8534 13.8936C53.7857 11.1558 56.4646 9.51236 59.3358 8.25561C62.216 6.99494 65.4037 6.07342 70.4118 4.91265L70.4179 4.91123C80.8416 2.47102 86.3145 2.80364 90.6816 5.10238C92.9227 6.29016 94.2619 7.27114 95.2438 8.38578C96.2202 9.49435 97.0004 10.914 97.8324 13.2292L97.8332 13.2313C101.326 22.9261 97.8099 36.1893 85.6705 52.5422L85.6638 52.5512L82.5631 56.7632L81.656 57.9955L82.1947 59.4278L83.6057 63.1785C84.4529 65.5035 85.6016 67.5243 87.2091 68.8957C88.9316 70.3653 91.0307 70.9516 93.2687 70.552L93.2851 70.5491L93.3015 70.5459C94.236 70.3677 96.3145 70.01 97.9589 69.763C99.9105 69.47 102.168 68.8365 106.149 67.4491C110.147 66.0559 116.044 63.8437 125.329 60.3179L125.338 60.3148L125.346 60.3116C132.168 57.6719 135.772 56.3835 138.998 55.7868C142.15 55.2038 145.044 55.2633 150.524 55.6118L150.539 55.6127L150.553 55.6135C163.116 56.2825 171.255 64.5302 170.863 73.9846C170.621 78.3374 169.52 81.3047 165.118 87.986L165.112 87.9947C162.261 92.3574 159.651 95.3389 155.884 98.0998C152.038 100.918 146.891 103.578 138.821 107.136C130.191 110.942 124.733 112.865 119.899 114.064C115.22 115.195 109.068 117.33 103.104 119.96C98.8071 121.855 96.23 123.025 94.2372 124.279C92.1488 125.592 90.7517 126.965 88.7335 129.036C86.391 131.408 84.4811 133.645 83.1984 135.503C82.5639 136.423 82.0185 137.341 81.6659 138.198C81.4896 138.626 81.3245 139.126 81.249 139.662C81.1767 140.176 81.155 140.948 81.5083 141.749C82.0157 142.9 82.9679 143.695 83.7346 144.209C84.5684 144.768 85.5558 145.239 86.5812 145.625C88.6314 146.396 91.1425 146.938 93.5942 147.057C98.259 147.3 103.873 146.366 110.889 144.247C117.927 142.121 126.54 138.75 137.253 133.986C147.435 129.496 155.658 126.093 161.912 123.777C168.292 121.414 172.306 120.307 174.247 120.173L174.263 120.171L174.279 120.17C176.122 120.021 179.504 119.68 181.856 119.388C186.597 118.825 192.575 119.424 197.89 120.806C200.533 121.493 202.933 122.354 204.874 123.31C206.862 124.289 208.157 125.266 208.816 126.081L208.821 126.087L208.826 126.093C209.768 127.247 210.759 128.934 211.551 130.752C212.348 132.58 212.846 134.314 212.963 135.546C212.999 135.972 212.927 136.828 212.642 138.094C212.368 139.309 211.942 140.71 211.415 142.129C210.321 145.073 208.959 147.643 207.936 148.782L207.931 148.788L207.926 148.794C202.808 154.553 201.941 155.445 199.327 157.332L199.323 157.334C199.077 157.512 198.297 157.972 196.897 158.717C195.563 159.427 193.812 160.319 191.754 161.338C187.639 163.374 182.341 165.892 176.781 168.425L176.773 168.429L176.765 168.433C171.294 170.967 166.01 173.44 161.917 175.397C159.872 176.376 158.113 177.23 156.774 177.903C155.529 178.527 154.454 179.087 153.918 179.447C152.214 180.575 150.302 182.271 148.8 183.842C148.04 184.637 147.332 185.454 146.781 186.207C146.506 186.582 146.241 186.981 146.024 187.384C145.831 187.742 145.563 188.304 145.468 188.964L145.463 188.997L145.459 189.03C145.162 191.501 146.453 193.439 148.307 194.57C150.012 195.609 152.247 196.05 154.62 196.093C161.261 196.329 169.351 193.213 179.737 187.164L179.745 187.159C191.272 180.393 205.968 174.513 214.305 173.218L214.315 173.216L214.324 173.215C217.983 172.621 222.365 172.459 223.971 172.667C225.033 172.82 226.03 172.945 226.792 173.026C227.172 173.066 227.519 173.098 227.796 173.115C227.93 173.124 228.087 173.131 228.24 173.131C228.313 173.131 228.431 173.129 228.566 173.117L228.572 173.117C228.607 173.114 228.769 173.102 228.99 173.05C229.161 173.058 229.435 173.086 229.818 173.145C230.619 173.269 231.677 173.496 232.819 173.792C235.202 174.408 237.453 175.19 238.347 175.699L238.354 175.703L238.36 175.706C240.004 176.63 242.402 177.909 243.718 178.539L243.753 178.556L243.788 178.572C244.047 178.687 244.641 179.091 245.505 179.947C246.317 180.75 247.205 181.786 248.058 182.93C249.831 185.304 251.159 187.738 251.524 189.166L251.526 189.173C251.99 190.972 252.179 194.55 252.009 198.32C251.926 200.156 251.763 201.941 251.532 203.458C251.293 205.032 251.011 206.12 250.768 206.679L250.759 206.698L250.751 206.718C247.543 214.403 246.746 216.021 245.158 218.41C244.202 219.84 242.463 221.897 241.436 222.949C240.575 223.8 239.009 225.37 237.453 226.931C236.837 227.549 236.223 228.164 235.655 228.733C233.726 230.568 229.876 233.573 227.065 235.188L227.032 235.207L227 235.226C221.471 238.6 206.846 245.061 198.688 247.779ZM20.7453 46.053C20.7452 46.0532 20.7444 46.0544 20.7429 46.0568C20.7445 46.054 20.7454 46.0528 20.7453 46.053ZM228.832 173.05C228.832 173.049 228.852 173.047 228.895 173.047C228.855 173.051 228.832 173.051 228.832 173.05Z" stroke="white" stroke-opacity="0.1" stroke-width="5.63957"/>
</svg>
