<svg width="288" height="200" viewBox="0 0 288 200" fill="none" xmlns="http://www.w3.org/2000/svg">
<path d="M232.075 194.899L231.995 194.898L231.915 194.901C231.351 194.924 230.463 194.766 229.516 194.392C228.547 194.009 227.911 193.556 227.678 193.303L227.64 193.262L227.601 193.222C227.605 193.226 227.604 193.225 227.597 193.215C227.568 193.181 227.453 193.04 227.24 192.724C226.997 192.365 226.692 191.88 226.331 191.272C225.61 190.056 224.715 188.436 223.703 186.513C221.681 182.674 219.24 177.723 216.861 172.594C214.453 167.399 211.989 162.324 209.939 158.314C208.914 156.311 207.985 154.556 207.211 153.177C206.482 151.879 205.777 150.703 205.222 150.025L205.206 150.005L205.19 149.986C204.726 149.439 203.686 147.762 202.33 145.23C201.03 142.803 199.572 139.845 198.282 136.956L198.282 136.955C196.952 133.981 195.345 130.777 193.817 128.016C192.342 125.35 190.821 122.879 189.637 121.483C187.419 118.738 184.601 116.03 182.085 114.073C180.829 113.096 179.559 112.237 178.411 111.657C177.913 111.405 177.361 111.166 176.789 111.005C176.551 110.503 176.24 110.084 175.943 109.759C175.273 109.024 174.417 108.46 173.6 108.023C171.941 107.136 169.756 106.413 167.447 105.868C162.831 104.778 156.971 104.226 152.263 104.89C149.688 105.243 147.599 105.706 145.706 106.464C143.782 107.235 142.198 108.256 140.57 109.568L140.547 109.587L140.523 109.606C138.035 111.696 135.174 116.027 133.141 119.838C132.092 121.804 131.172 123.801 130.573 125.523C130.275 126.378 130.028 127.246 129.9 128.055C129.798 128.7 129.69 129.766 130.07 130.812C130.078 130.863 130.093 130.972 130.106 131.155C130.136 131.542 130.15 132.081 130.141 132.753C130.122 134.09 130.015 135.797 129.82 137.558C129.603 139.513 129.507 141.495 129.519 143.139C129.526 143.959 129.559 144.733 129.626 145.398C129.671 145.846 129.748 146.45 129.924 147.024C129.775 147.223 129.672 147.402 129.606 147.528C129.383 147.948 129.26 148.366 129.185 148.68C129.032 149.323 128.965 150.046 128.942 150.74C128.895 152.144 129.014 153.893 129.306 155.676C129.495 157.173 129.551 158.639 129.504 159.765C129.483 160.275 129.442 160.664 129.399 160.927C129.095 161.322 128.888 161.721 128.748 162.023C128.492 162.581 128.298 163.189 128.151 163.78C127.857 164.965 127.686 166.346 127.67 167.685L127.669 167.709L127.669 167.733C127.684 171.774 124.193 176.153 116.086 178.526C111.574 179.818 107.489 180.631 104.415 180.934C102.866 181.087 101.675 181.1 100.859 181.017C100.542 180.985 100.331 180.943 100.207 180.91C99.5195 180.301 98.6862 179.852 97.8126 179.611C96.9601 179.375 95.877 179.289 94.7852 179.659C94.7703 179.659 94.7538 179.658 94.7355 179.656C94.502 179.641 94.1288 179.585 93.5957 179.459C92.5329 179.206 91.1151 178.74 89.4138 178.076C86.0278 176.756 81.81 174.772 77.6148 172.56C73.4214 170.348 69.3276 167.95 66.182 165.823C64.6047 164.757 63.3174 163.793 62.3893 162.983C61.5549 162.255 61.2412 161.846 61.1622 161.742C61.142 161.716 61.1372 161.71 61.1429 161.723C60.7069 160.692 60.097 159.682 59.4476 158.853C58.9299 158.192 58.0907 157.258 57.0146 156.743C56.9804 156.715 56.8252 156.598 56.5214 156.314C56.0847 155.906 55.5079 155.316 54.7967 154.542C53.3796 152.999 51.5422 150.849 49.4144 148.247C45.1649 143.052 39.8421 136.159 34.5597 128.957L34.538 128.927L34.5155 128.898C34.1453 128.419 33.662 127.782 33.1043 127.048C31.4184 124.829 29.0533 121.717 27.0827 119.334C22.2877 113.225 16.0458 102.001 11.1082 91.3542C8.64807 86.0494 6.55365 80.9776 5.15074 76.8601C4.44808 74.7978 3.93655 73.0262 3.63513 71.6133C3.32062 70.139 3.30559 69.3637 3.34268 69.1033C3.40344 68.8118 3.75203 67.9942 4.74145 66.66C5.67962 65.3949 6.98327 63.9429 8.52159 62.4595C11.6189 59.4728 15.4098 56.6053 18.5942 55.0043C22.6293 53.001 26.7414 49.9375 28.7033 46.9826C30.0948 44.9767 32.2227 43.3482 39.7712 40.0164L39.7752 40.0146C43.3109 38.4478 45.6466 37.4809 47.4516 37.1083C49.0545 36.7775 49.8639 36.9899 50.6188 37.5254C51.6202 38.2357 52.8436 39.7548 54.5486 42.9303C56.2177 46.0388 58.1453 50.3278 60.7263 56.1815C65.8506 67.9695 67.936 71.6731 72.3969 75.2204C75.8426 78.0039 79.6991 79.9307 83.6498 78.379C85.5121 77.6476 87.0102 76.2655 88.2598 74.5898C89.5095 72.9141 90.6332 70.7803 91.7016 68.2738C93.5406 63.9917 95.307 57.9142 95.5959 54.4192C95.8387 51.4815 96.572 47.9946 97.0243 46.8794L97.0539 46.8066L97.0795 46.7323C97.4272 45.7263 98.1999 43.5803 99.0922 41.1018C99.6416 39.576 100.236 37.9243 100.805 36.3348L100.809 36.3227C103.457 28.8237 105.481 24.0003 107.37 20.8271C109.205 17.744 110.774 16.4542 112.461 15.7407C115.07 14.6377 118.8 12.4659 120.923 10.78L120.941 10.766L120.959 10.7517C121.903 9.97825 123.848 8.95964 126.606 7.88416C129.279 6.84179 132.452 5.84542 135.629 5.0307C138.81 4.21495 141.926 3.59895 144.487 3.29506C145.77 3.14288 146.861 3.07527 147.724 3.08835C148.648 3.10236 149.073 3.20776 149.166 3.24362L149.196 3.25532L149.227 3.26635C150.538 3.73809 151.975 4.05482 153.271 4.19026C154.361 4.30417 155.872 4.35175 157.128 3.87292C157.399 4.0499 157.672 4.1862 157.894 4.28763C158.4 4.51847 159.001 4.72792 159.611 4.9142C160.852 5.29334 162.447 5.67245 164.123 5.99116L164.136 5.99368C167.649 6.64497 172.834 8.37886 177.308 10.242C179.528 11.1669 181.489 12.0884 182.912 12.8748C183.629 13.2714 184.147 13.599 184.475 13.8434C184.519 13.8761 184.557 13.9053 184.589 13.931C184.914 14.5855 185.354 15.2201 185.898 15.7482C186.46 16.2936 187.478 17.0496 188.859 17.0984C188.899 17.1093 189.048 17.1462 189.335 17.2525C189.774 17.4155 190.354 17.6715 191.058 18.0207C192.459 18.7162 194.182 19.6974 195.952 20.8043C199.614 23.0941 202.966 25.6015 204.15 26.971L204.174 26.9979L204.197 27.0242C205.217 28.1486 206.382 29.2507 207.494 30.1472C208.491 30.9505 209.727 31.823 210.901 32.2333C210.933 32.2523 211.047 32.32 211.256 32.4768C211.585 32.7248 212.011 33.0899 212.498 33.5613C213.473 34.5041 214.568 35.7479 215.494 37.0479L215.517 37.08L215.54 37.1114C216.723 38.6835 217.919 40.0818 218.924 41.092C219.415 41.5853 219.933 42.0595 220.429 42.418C220.666 42.5895 221.011 42.8173 221.423 42.9895C221.519 43.0299 221.742 43.1219 222.05 43.1889C222.165 43.2987 222.309 43.445 222.484 43.6342C223.231 44.4434 224.215 45.694 225.254 47.2002L225.26 47.2089L225.266 47.2175C227.494 50.3965 231.441 54.9527 234.136 57.4277C235.24 58.5145 236.248 59.6543 236.949 60.6078C237.306 61.0942 237.537 61.4684 237.661 61.718C237.671 61.7369 237.679 61.7542 237.687 61.77C237.729 62.3018 237.878 62.7768 237.987 63.0865C238.117 63.4552 238.282 63.8376 238.459 64.212C238.815 64.9628 239.293 65.8379 239.842 66.7732C240.944 68.6524 242.428 70.9395 244.037 73.2669C247.194 77.8344 251.062 82.8875 253.656 85.366C253.831 85.5453 254.293 86.1388 255.048 87.3043C255.771 88.422 256.648 89.8817 257.622 91.5929C259.568 95.0119 261.852 99.3473 264.004 103.781L264.005 103.784L264.523 104.847C269.009 114.064 271.148 118.457 272.87 122.764C274.541 126.942 275.821 131.041 278.445 139.44C278.622 140.007 278.805 140.593 278.995 141.201L278.998 141.21L279.001 141.219C282.034 150.707 283.837 157.668 284.571 162.609C284.939 165.08 285.02 166.925 284.899 168.264C284.79 169.48 284.533 170.074 284.361 170.337C284.359 170.339 284.356 170.341 284.353 170.344C284.256 170.423 283.915 170.701 283.166 171.193C282.321 171.747 281.184 172.429 279.821 173.193C277.106 174.717 273.605 176.507 269.976 178.18C266.189 179.853 262.411 181.7 259.33 183.325C256.383 184.878 253.835 186.351 252.612 187.305C251.094 188.398 247.035 190.394 243.812 191.368L243.782 191.377L243.752 191.387C241.562 192.099 239.739 192.805 238.473 193.546C237.864 193.903 237.115 194.418 236.565 195.161C236.498 195.253 236.432 195.35 236.369 195.452C236.141 195.384 235.916 195.327 235.7 195.278C234.633 195.04 233.353 194.915 232.075 194.899ZM94.8923 179.659C94.8923 179.66 94.887 179.66 94.8759 179.66C94.8867 179.659 94.8924 179.659 94.8923 179.659ZM130.117 147.566C130.117 147.566 130.116 147.563 130.115 147.556C130.116 147.563 130.117 147.566 130.117 147.566ZM100.083 180.87C100.084 180.87 100.089 180.872 100.099 180.877C100.088 180.873 100.083 180.87 100.083 180.87ZM237.739 61.8965C237.738 61.8962 237.733 61.8839 237.727 61.8604C237.736 61.885 237.74 61.8968 237.739 61.8965Z" stroke="white" stroke-opacity="0.1" stroke-width="5.97862"/>
</svg>
