<svg width="332" height="391" viewBox="0 0 332 391" fill="none" xmlns="http://www.w3.org/2000/svg">
<path d="M184.917 342.631C177.64 341.245 172.497 337.74 167.487 330.821C165.114 327.385 164.995 326.545 166.147 322.335C167.689 316.888 174.024 310.298 179.096 308.824C182.9 307.719 189.429 307.822 194.512 308.97C202.039 310.783 209.739 325.671 207.085 333.316C204.48 340.698 195.445 344.448 184.917 342.631Z" fill="#FFE9A9"/>
<path d="M104.101 321.737C97.1626 322.377 92.228 321.311 85.7313 317.449C78.342 313.096 74.184 308.679 71.1522 301.685C67.6704 293.572 67.3162 288.05 70.2119 282.959C72.3047 278.976 73.3569 278.296 79.5812 276.487C84.8835 274.947 87.4715 274.82 90.8071 275.976C97.8911 278.418 112.253 286.12 114.953 288.96C117.984 292.08 122.066 305.268 121.36 309.723C120.48 315.728 113.215 320.839 104.101 321.737Z" fill="#FFE9A9"/>
<path d="M243.97 281.728C234.079 282.101 226.773 281.474 220.499 279.672C211.106 277.026 200.113 270.595 199.142 267.252C198.707 265.754 197.81 264.389 197.018 264.244C194.69 263.546 193.138 255.622 194.722 252.037C196.893 247.032 209.259 243.564 220.988 244.782C238.621 246.534 253.328 250.261 260.866 254.695C264.503 256.889 265.332 258.023 266.393 262.964C267.587 268.367 267.491 268.895 263.502 272.804C259.464 276.977 249.41 281.522 243.97 281.728Z" fill="#FFE9A9"/>
<path d="M141.645 273.706C133.416 273.347 123.937 269.976 115.767 264.225C106.886 258.181 102.178 252.299 98.6062 242.587L95.537 234.604L98.5745 231.722C100.233 230.115 104.378 228.036 107.836 227.031C113.254 225.457 115.299 225.613 121.903 227.694C137.209 232.622 152.981 246.039 156.163 256.989C158.172 263.905 157.674 266.925 153.848 270.536C150.417 273.783 149.61 274.017 141.645 273.706Z" fill="#FFE9A9"/>
<path d="M282.896 221.672C276.109 219.394 269.299 211.872 266.922 203.689C265.114 197.464 265.524 185.971 267.632 181.608C269.037 178.7 276.28 176.096 280.389 176.902C287.7 178.403 299.478 190.981 302.124 200.087C306.343 214.61 296.253 225.916 282.896 221.672Z" fill="#FFE9A9"/>
<path d="M226.071 205.057C217.147 204.025 211.531 198.031 207.914 185.583C204.298 173.134 206.059 164.998 213.666 158.913C216.492 156.592 217.678 156.373 222.675 156.796C233.544 157.638 243.188 168.461 243.901 180.378C244.404 189.856 243.539 195.482 240.899 198.874C238.178 202.414 230.608 205.614 226.071 205.057Z" fill="#FFE9A9"/>
<path d="M53.5868 240.791C48.4739 240.402 39.724 237.819 33.3463 234.797C27.7942 232.035 19.4377 225.213 18.7345 222.793C18.3662 221.525 19.3398 217.992 20.9084 214.787C23.5884 209.383 24.1796 208.837 29.8276 207.196C39.6252 204.349 49.1485 206.582 59.487 214.203C66.5009 219.415 70.2539 225.45 69.7491 230.596C69.2739 234.984 65.3369 239.503 61.1203 240.478C59.5884 240.798 56.2418 240.895 53.5868 240.791Z" fill="#FFE9A9"/>
<path d="M167.048 201.955C159.395 201.428 149.058 197.682 144.093 193.499C140.006 190.187 138.678 188.198 137.238 183.241C135.697 177.939 135.757 176.422 137.82 173.198C143.582 163.774 151.007 161.367 166.469 164.25C179.487 166.468 189.507 176.431 189.189 186.523C188.915 195.477 178.412 202.778 167.048 201.955Z" fill="#FFE9A9"/>
<path d="M-16.1463 190.928C-24.4313 189.085 -30.0768 183.851 -32.4878 175.552C-37.1758 159.414 -26.8438 150.663 -12.0543 158.116L-6.02245 161.238L-2.68158 171.017C0.845393 181.867 0.704384 183.533 -4.86504 188.026C-9.21871 191.541 -11.0964 191.961 -16.1463 190.928Z" fill="#FFE9A9"/>
<path d="M175.547 129.239C163.004 126.508 149.603 108.778 150.903 96.9006C151.523 91.7207 157.605 83.8291 161.985 82.5567C173.742 79.1411 187.573 89.7474 192.294 106C194.705 114.299 194.13 118.341 189.869 124.328C187.215 128.099 180.515 130.421 175.547 129.239Z" fill="#FFE9A9"/>
<path d="M109.769 134.724C107.493 134.636 105.232 134.167 104.637 133.84C104.042 133.513 102.789 133.502 101.982 133.737C101.06 134.005 98.4198 133.522 95.9432 132.741C75.4013 125.709 66.4234 116.318 69.9205 105.553C72.2135 98.387 75.0243 96.4455 84.3016 95.2502C106.136 92.532 121.691 97.8875 128.788 110.7C131.548 115.898 130.334 124.625 126.166 129.211C122.753 132.952 116.135 135.125 109.769 134.724Z" fill="#FFE9A9"/>
<path d="M11.6755 151.597C0.348547 147.888 -5.40835 143.561 -11.7983 134.043C-19.6983 122.339 -20.019 116.932 -13.1559 110.439C-10.282 107.854 -9.47518 107.619 -3.9012 107.875C2.54661 108.127 13.9966 113.55 17.8423 118.182C25.1022 126.823 28.9267 137.836 26.8455 144.44C25.6265 148.419 24.6413 149.33 20.3617 150.949C16.9707 152.184 14.0369 152.411 11.6755 151.597Z" fill="#FFE9A9"/>
<path d="M34.2698 93.4109C26.6803 92.241 19.5885 88.0515 18.4165 84.0172C17.9142 82.2882 18.2593 78.3132 19.1698 75.4238C21.0056 69.2657 24.5898 66.9746 34.4917 65.3479C42.4489 63.9112 47.811 64.7283 54.4044 68.0626C58.6847 70.3189 59.7781 71.5012 60.9501 75.5355C61.7538 78.3018 61.8659 81.2691 61.3752 82.1616C57.1858 89.2534 43.8227 94.8855 34.2698 93.4109Z" fill="#FFE9A9"/>
<path d="M105.913 71.9727C103.44 72.0661 100.867 71.8137 100.272 71.4866C99.6434 71.0442 98.275 71.0668 97.2376 71.3681C96.2002 71.6695 93.5748 70.8073 91.3436 69.5806C88.0375 67.6662 86.9924 66.2199 85.519 61.1482C83.9786 55.846 84.1048 54.5594 86.4951 50.7402C91.4058 42.6889 105.583 38.5701 114.932 42.3538C122.299 45.3384 126.167 51.3393 124.96 57.9397C123.608 65.3322 114.651 71.934 105.913 71.9727Z" fill="#FFE9A9"/>
</svg>
