<svg width="260" height="260" viewBox="0 0 260 260" fill="none" xmlns="http://www.w3.org/2000/svg">
<rect width="260" height="260" rx="20" fill="white"/>
<path d="M76.8194 68C46.7517 68 37 101.313 37 128.531C37 202.469 63.4108 237 88.6027 237C113.795 237 115.014 223.594 128.016 223.594C141.018 223.594 157.677 237 170.679 237C183.682 237 217 214.656 217 142.75C217 70.8438 190.995 68 170.679 68C150.363 68 143.05 76.125 128.016 76.125C112.982 76.125 106.887 68 76.8194 68Z" fill="#C93F5A"/>
<path d="M170.169 67.6237C177.714 91.304 184.402 127.853 173.451 169.466C164.285 204.298 156.952 219.025 148.323 229.669C148.643 229.813 148.963 229.958 149.283 230.102C156.705 233.458 164.127 236.813 170.635 236.813C183.649 236.813 217 214.444 217 142.457C217 70.4693 190.97 67.6223 170.635 67.6223C170.479 67.6223 170.323 67.6228 170.169 67.6237Z" fill="#A7253F"/>
<path d="M156.694 31.6678C151.492 24.8402 147.041 20.5762 133.754 24.461C119.391 53.4468 115.154 77.3092 116.516 97.1884C122.47 101.894 123.325 101.644 130.189 96.414C129.119 69.7587 140.051 45.5167 156.694 31.6678Z" fill="#373030"/>
</svg>
