<svg width="100" height="100" viewBox="0 0 100 100" fill="none" xmlns="http://www.w3.org/2000/svg">
<path d="M85.3744 14.6266C65.8723 -4.87552 34.1287 -4.87552 14.6266 14.6266C-4.87552 34.1287 -4.87552 65.8512 14.6266 85.3533C24.3776 95.1044 37.1996 99.9799 50.0005 99.9799C53.0503 99.9799 56.1213 99.7055 59.1395 99.1251C63.519 98.3336 67.8141 96.9406 71.8981 94.9566C76.7737 92.5822 81.3432 89.3846 85.3744 85.3533C89.4479 81.2798 92.6561 76.6787 95.0094 71.7715C96.9934 67.6875 98.3863 63.3924 99.1778 59.0128C102.038 43.3943 97.4366 26.6887 85.3744 14.6266ZM80.8366 72.2992L57.4298 48.8924L48.9663 57.356L72.3942 80.7838C69.4393 82.9472 66.21 84.6568 62.7908 85.8704L40.2073 63.2974L40.165 49.9794L50.7075 39.5318L63.2552 40.0278L85.8704 62.6431C84.699 66.0412 83 69.2915 80.8366 72.2992ZM68.4262 28.2612L28.1556 26.6465L28.2506 68.2362L48.0165 88.0022C38.5926 87.5167 29.8019 83.6226 23.0901 76.8897C15.9035 69.7031 11.9461 60.142 11.9461 49.9794C11.9461 39.8273 15.9035 30.2662 23.0901 23.0796C30.5195 15.6502 40.2494 11.9355 50.0005 11.9355C59.7515 11.9355 69.492 15.6502 76.9109 23.0796C83.7598 29.9285 87.4534 38.7931 87.9494 47.7949L68.4262 28.2612Z" fill="#E5AD23"/>
</svg>
